<?xml version="1.0" encoding="UTF-8" standalone="no"?>
<svg width="500px" height="500px" viewBox="0 0 500 500" version="1.1" xmlns="http://www.w3.org/2000/svg" xmlns:xlink="http://www.w3.org/1999/xlink" xmlns:sketch="http://www.bohemiancoding.com/sketch/ns">
    <!-- Generator: Sketch 3.2.2 (9983) - http://www.bohemiancoding.com/sketch -->
    <title>Rocket 2</title>
    <desc>Created with Sketch.</desc>
    <defs></defs>
    <g id="Page-1" stroke="none" stroke-width="1" fill="none" fill-rule="evenodd" sketch:type="MSPage">
        <circle id="Icon" fill="#005D82" sketch:type="MSShapeGroup" cx="250" cy="250" r="250"></circle>
        <g id="Rocket" sketch:type="MSLayerGroup" transform="translate(250.120498, 249.794227) rotate(36.000000) translate(-250.120498, -249.794227) translate(123.120498, 43.294227)">
            <g id="Rocket-Fire" transform="translate(87.000000, 332.000000)" sketch:type="MSShapeGroup">
                <path d="M43.7214514,80.2305116 C43.7214514,80.2305116 59.2910514,65.4043066 59.2910514,47.1152558 C59.2910514,28.826205 43.7214514,14 43.7214514,14 C43.7214514,14 28.1518514,28.826205 28.1518514,47.1152558 C28.1518514,65.4043066 43.7214514,80.2305116 43.7214514,80.2305116 Z" id="Yellow-Fire-Middle" fill="#FFCD00"></path>
                <path d="M67.184463,62.8108779 C67.184463,62.8108779 77.8993818,53.1774274 77.8993818,41.293964 C77.8993818,29.4105006 67.184463,19.7770501 67.184463,19.7770501 C67.184463,19.7770501 56.4695441,29.4105006 56.4695441,41.293964 C56.4695441,53.1774274 67.184463,62.8108779 67.184463,62.8108779 Z" id="Yellow-Fire-Right" fill="#FFCD00" transform="translate(67.184463, 41.293964) scale(-1, 1) rotate(27.000000) translate(-67.184463, -41.293964) "></path>
                <path d="M20.184463,61.8108779 C20.184463,61.8108779 30.8993818,52.1774274 30.8993818,40.293964 C30.8993818,28.4105006 20.184463,18.7770501 20.184463,18.7770501 C20.184463,18.7770501 9.46954415,28.4105006 9.46954415,40.293964 C9.46954415,52.1774274 20.184463,61.8108779 20.184463,61.8108779 Z" id="Yellow-Fire-Left" fill="#FFCD00" transform="translate(20.184463, 40.293964) rotate(27.000000) translate(-20.184463, -40.293964) "></path>
                <path d="M43.7214514,57.5 C43.7214514,57.5 54.4363702,46.5309764 54.4363702,33 C54.4363702,19.4690236 43.7214514,8.5 43.7214514,8.5 C43.7214514,8.5 33.0065326,19.4690236 33.0065326,33 C33.0065326,46.5309764 43.7214514,57.5 43.7214514,57.5 Z" id="Orange-Fire-Middle" fill="#FF8D00"></path>
                <path d="M59.2910514,51.2922464 C59.2910514,51.2922464 68.6873828,40.3232228 68.6873828,26.7922464 C68.6873828,13.26127 59.2910514,2.29224641 59.2910514,2.29224641 C59.2910514,2.29224641 49.8947201,13.26127 49.8947201,26.7922464 C49.8947201,40.3232228 59.2910514,51.2922464 59.2910514,51.2922464 Z" id="Orange-Fire-Right" fill="#FF8D00" transform="translate(59.291051, 26.792246) scale(-1, 1) rotate(28.000000) translate(-59.291051, -26.792246) "></path>
                <path d="M28.0704045,51.2922464 C28.0704045,51.2922464 37.4667358,40.3232228 37.4667358,26.7922464 C37.4667358,13.26127 28.0704045,2.29224641 28.0704045,2.29224641 C28.0704045,2.29224641 18.6740731,13.26127 18.6740731,26.7922464 C18.6740731,40.3232228 28.0704045,51.2922464 28.0704045,51.2922464 Z" id="Orange-Fire-Left" fill="#FF8D00" transform="translate(28.070404, 26.792246) rotate(28.000000) translate(-28.070404, -26.792246) "></path>
            </g>
            <g id="Rocket-Body" sketch:type="MSShapeGroup">
                <path d="M62,376 C62,376 100,343.764502 100,304 C100,264.235498 62,232 62,232 C62,232 24,264.235498 24,304 C24,343.764502 62,376 62,376 Z" id="Left-Stand" fill="#D8D8D8" transform="translate(62.000000, 304.000000) rotate(21.000000) translate(-62.000000, -304.000000) "></path>
                <path d="M192,376 C192,376 230,343.764502 230,304 C230,264.235498 192,232 192,232 C192,232 154,264.235498 154,304 C154,343.764502 192,376 192,376 Z" id="Right-Stand" fill="#D8D8D8" transform="translate(192.000000, 304.000000) scale(-1, 1) rotate(21.000000) translate(-192.000000, -304.000000) "></path>
                <path d="M99.2848095,346.257769 L162,346.257782 C162,346.257782 216,254.784467 216,192.5 C216,86.1851857 130.5,0 130.5,0 C130.5,0 45,86.1851857 45,192.5 C45,255.325985 99.2848095,346.257769 99.2848095,346.257769 Z" fill="#ECECEC"></path>
                <path d="M130.5,346.257782 L162,346.257782 C162,346.257782 216,254.784467 216,192.5 C216,86.1851857 130.5,0 130.5,0 L130.5,346.257782 Z" id="Rocket-Body-Shadow" fill="#E5E4E4"></path>
                <rect id="Engine" fill="#747474" x="99" y="346" width="63" height="19"></rect>
                <ellipse id="Window" fill="#8DCEF3" cx="130.5" cy="107" rx="35.5" ry="36"></ellipse>
            </g>
        </g>
    </g>
</svg>